<?xml version="1.0" encoding="utf-8"?>
<!-- Generator: Adobe Illustrator 19.0.0, SVG Export Plug-In . SVG Version: 6.00 Build 0)  -->
<svg version="1.1" id="Calque_1" xmlns="http://www.w3.org/2000/svg" xmlns:xlink="http://www.w3.org/1999/xlink" x="0px" y="0px"
	 viewBox="0 0 571.7 299.9" style="enable-background:new 0 0 571.7 299.9;" xml:space="preserve">
<style type="text/css">
	.st0{fill:#F56462;}
	.st1{fill:#1E1E1E;}
</style>
<path class="st0" d="M0,0.8c0-0.2,0-0.5,0-0.7c29.7,0,59.4,0,89.2,0c4.9,68.2,9.8,135.9,14.6,203.7c1-0.3,1.2-0.7,1.4-1.1
	c9.2-19.2,18.5-38.5,27.6-57.8c0.7-1.5,0.7-3.5,0.6-5.3c-1.4-13.9-2.9-27.7-4.4-41.6c-2.7-25.2-5.3-50.4-8-75.6
	c-0.8-7.4-1.5-14.7-2.3-22.2c0.7-0.1,1.1-0.3,1.5-0.3c23.7,0,47.3,0,71-0.1c2.2,0,2.7,0.9,2.7,2.8c0.9,21.7,1.9,43.4,2.8,65
	c0.3,7.6,0.7,15.2,1.1,22.8c1.2-1,1.8-2,2.3-3.1c13.2-28.1,26.4-56.2,39.5-84.3c1.1-2.4,2.4-3.3,5.1-3.2c22.7,0.1,45.5,0.1,68.2,0.1
	c1.1,0,2.2,0.1,3.6,0.2c-0.7,1.4-1.2,2.4-1.7,3.4c-24.5,45.5-49.1,91-73.5,136.6c-1,1.8-1.5,4.1-1.4,6.1c0.6,10.7,1.4,21.4,2.2,32.1
	c0.6,8.5,1.3,17,2,25.4c2.5-3.5,4.4-7.3,6.2-11c31.2-63.3,62.3-126.5,93.4-189.9c1.1-2.3,2.3-3.1,4.9-3c27.5,0.1,55.1,0.1,82.6,0.1
	c1.1,0,2.2,0.1,3.6,0.2c-0.7,1.3-1.2,2.3-1.7,3.3c-57,97.9-114,195.8-170.9,293.7c-1.1,1.9-2.3,2.7-4.6,2.6
	c-20.6-0.1-41.1-0.1-61.7-0.1c-1,0-2,0-3.2,0c-5.4-35.5-10.8-70.7-16.4-106.8c-1.2,2-1.9,3.1-2.5,4.1
	c-18.9,33.1-37.8,66.2-56.6,99.4c-1.4,2.5-3,3.4-5.9,3.4c-20.1-0.1-40.2-0.1-60.3-0.1c-1.2,0-2.4,0-3.7,0
	c-4.2-26.4-8.3-52.5-12.4-78.5c-5.2-32.8-10.3-65.6-15.5-98.4C14.4,90.1,9.3,57.4,4.1,24.7C2.8,16.7,1.4,8.8,0,0.8z"/>
<path class="st1" d="M538.5,0.2c11.1,100,22.2,199.6,33.3,299.5c-27.8,0-55.3,0-83.1,0c-2.6-68.5-5.3-136.8-7.9-205.1
	c-0.2-0.1-0.5-0.2-0.7-0.3c-0.6,1-1.3,1.9-1.8,2.9c-13.3,29-26.7,58-39.9,87c-17.1,37.5-34.1,75-51,112.6c-1.1,2.5-2.4,3.2-5.1,3.2
	c-25.4-0.1-50.7-0.1-76.1-0.1c-1,0-2,0-3.6,0c0.7-1.4,1.1-2.5,1.7-3.5C356.5,198.8,408.8,101.2,461,3.6c1.4-2.5,2.8-3.5,5.7-3.5
	c22.5,0.1,45,0.1,67.5,0.1C535.5,0.2,536.8,0.2,538.5,0.2z"/>
</svg>
